<mxfile host="app.diagrams.net" agent="Mozilla/5.0 (Windows NT 10.0; Win64; x64) AppleWebKit/537.36 (KHTML, like Gecko) Chrome/128.0.0.0 Safari/537.36 Edg/128.0.0.0" version="24.7.10">
  <diagram name="第 1 页" id="SXCxMUm2aIslNNsUTDw6">
    <mxGraphModel dx="1386" dy="783" grid="1" gridSize="10" guides="1" tooltips="1" connect="1" arrows="1" fold="1" page="1" pageScale="1" pageWidth="827" pageHeight="1169" math="0" shadow="0">
      <root>
        <mxCell id="0" />
        <mxCell id="1" parent="0" />
        <mxCell id="6eAyJSd-vNvjeNc0bTOW-3" value="" style="group" vertex="1" connectable="0" parent="1">
          <mxGeometry x="10" y="300" width="490" height="280" as="geometry" />
        </mxCell>
        <mxCell id="6eAyJSd-vNvjeNc0bTOW-4" value="" style="group" vertex="1" connectable="0" parent="6eAyJSd-vNvjeNc0bTOW-3">
          <mxGeometry x="50" y="10" width="490" height="280" as="geometry" />
        </mxCell>
        <mxCell id="6eAyJSd-vNvjeNc0bTOW-1" value="" style="shape=trapezoid;perimeter=trapezoidPerimeter;whiteSpace=wrap;html=1;fixedSize=1;size=-10;" vertex="1" parent="6eAyJSd-vNvjeNc0bTOW-4">
          <mxGeometry width="490" height="280" as="geometry" />
        </mxCell>
        <mxCell id="6eAyJSd-vNvjeNc0bTOW-2" value="" style="rounded=0;whiteSpace=wrap;html=1;fillColor=#dae8fc;strokeColor=#6c8ebf;" vertex="1" parent="6eAyJSd-vNvjeNc0bTOW-4">
          <mxGeometry x="60" y="60" width="120" height="60" as="geometry" />
        </mxCell>
      </root>
    </mxGraphModel>
  </diagram>
</mxfile>
